<svg height="100" viewBox="0 0 188 100" width="188" xmlns="http://www.w3.org/2000/svg"><g fill="none" transform=""><path d="m106.498891 14.7494457c.353814-.0212392.700907.1032356.960586.3444858s.409321.5782587.414137.932676l-.135255 8.4966741v.0221729.0532151.1263858.0687362.2882483c-.033067.5323244-.149798 1.0561151-.345898 1.5521064-.006652.0199557-.02439.0399113-.02439.059867-.130956.3209567-.296769.6265585-.494457.9113082l-.08204.1042129c-.053215.0776053-.126386.1751663-.166297.2217295s-.075388.0776053-.128603.1374722c-.053215.059867-.110865.1241686-.161862.1751663-.050998.0509978-.117517.1019956-.170732.1507761s-.128603.1175166-.16408.1463415c-.035477.0288248-.077605.0554323-.115299.0842572-.086475.0643015-.172949.1308204-.268293.1951219-.160588.1069816-.327156.2047018-.498891.2926829-.019956.0088692-.039912.0155211-.059867.0266076-.155211.075388-.317074.1463414-.483371.2084257l-.026607.0110865c-1.394679.5077605-3.172949.5476718-5.2305988.5476718h-.4900222c-.2439024.0044346-.4833703.0133038-.7050998.0288248-.1123429.007391-.2232077.0162602-.3325942.0266076-.2316847.0234912-.461895.0597623-.6895787.1086474-.2213214.0471339-.4379968.1139174-.6474501.1995566-.0709535.0332594-.1463415.0687361-.2217295.1064301-.2948318.1408572-.5580715.3399842-.773836.5853659l-.0465631.0576497c-.0816944.1031427-.1557987.2120761-.2217295.3259423-.0747209.1219351-.1399539.2494359-.195122.3813747-.2159514.5357139-.694414.9210022-1.2638581 1.0177384-.0821105.0132955-.165157.0199689-.248337.0199556h-.0399113c-.0824499.0001488-.1647708-.0065258-.2461197-.0199556-.5698103-.0959221-1.0486239-.4814931-1.2638581-1.0177384-.0569626-.1310985-.1221324-.258476-.195122-.3813747-.0659637-.1138456-.1400664-.2227766-.2217295-.3259423-.0142926-.0201772-.0298446-.039432-.0465632-.0576497-.2050722-.2345645-.4535264-.4273047-.7317073-.5676275-.0665188-.037694-.1419069-.0731707-.2217295-.1064302-.208673-.085692-.4246172-.1524789-.6452328-.1995565-.2277155-.0487143-.4579163-.0849839-.6895787-.1086475-.1079084-.0177383-.2187731-.0266075-.3325942-.0266075-.2261641-.0155211-.4611974-.0288248-.7050998-.0288248h-.4900222c-2.0576497 0-3.8359202-.0399113-5.232816-.5476719l-.0243902-.0110864c-.1685144-.0620843-.3281597-.1330377-.4855876-.2084258-.0177384-.0110864-.0399113-.0266075-.0576497-.0266075-.1720057-.0874869-.3386026-.1852238-.4988913-.2926829-.0953437-.0643016-.1818182-.1308204-.2682927-.195122l-.1175166-.0842572c-.0576497-.0487805-.1064302-.0953437-.1640798-.1463414-.0576497-.0509978-.1130821-.0931264-.1707318-.1507761-.0576496-.0576497-.1197339-.1308204-.1618625-.1751663s-.0643015-.059867-.1263858-.1374723c-.0620842-.0776053-.113082-.150776-.1685144-.2217295-.0243902-.0354767-.0554324-.0709534-.0798226-.1042128-.1985163-.2842385-.3643811-.5899354-.4944568-.9113082l-.0266075-.059867c-.1950518-.4963127-.3117451-1.0199363-.345898-1.5521064 0-.1241685 0-.2239468 0-.2882484v-.0687361c-.0021493-.0421012-.0021493-.0842846 0-.1263858-.001104-.0177212-.001104-.0354939 0-.0532151 0-.0066519 0-.0221729 0-.0221729l-.135255-8.4966741c.0003466-.3601793.1501847-.704055.4137473-.9495424.2635626-.2454873.6171998-.3705583.9764966-.3453578.691796 0 1.2084257.6629712 1.2084257 1.2949002 0 0 .2860311 7.7317073.6141907 8.9490022.2471101.8185084.9214679 1.4367405 1.7583149 1.6119734.6065939.0857473 1.2189271.1242961 1.8314855.1152993h.9445677.9800443c1.4257206 0 2.5144124.1374723 3.3370288.443459.4674118.1984014.8892353.490433 1.2394679.8580931.608319.5946193 1.580151.5946193 2.1884701 0 .3498203-.3681417.7717504-.6602472 1.2394678-.8580931.8226164-.3126386 1.9090909-.443459 3.3370288-.443459h.9778275.946785c.612556.0089167 1.224883-.0296318 1.831485-.1152993.836847-.1752329 1.511205-.793465 1.758315-1.6119734.32816-1.2172949.614191-8.9490022.614191-8.9490022 0-.6297118.514412-1.2949002 1.208425-1.2949002zm1.261641-6.7073171c.053335.36203036-.054865.7292313-.295988 1.0044955s-.590882.43086733-.956783.42565971h-.028825c-.561761-.00217066-1.054414-.3755019-1.208426-.91574279-.643016-2.22394678-1.929047-2.56984479-4.343681-2.56984479h-1.7560973c-1.1560045.01571507-2.3071413-.15268921-3.4101995-.49889135-.1888955-.05664584-.3934441-.02085942-.5518873.09655438s-.2522104.30269341-.2529908.49989795c-.037694 3.54323725-.1640798 16.09090909-.1640798 16.14634149 0 .6252771-.6674058 1.1330377-1.2926829 1.1330377-.6252772 0-1.2904657-.5077606-1.2904657-1.1330377 0-.0554324-.1263858-12.59866965-.1662971-16.14634149-.0000508-.19702864-.0932924-.38242305-.251438-.49994008-.1581456-.11751704-.3625573-.15330699-.5512228-.09651225-1.1045959.34591714-2.2572641.51357797-3.4146341.49667406h-1.7560976c-2.4168514 0-3.7006651.35254988-4.345898 2.56984479-.1531375.53989607-.6450194.91332845-1.2062084.91574279h-.0288248c-.363777.00259991-.7105259-.15389557-.9492346-.42841067-.2387088-.27451509-.345539-.63963554-.2924506-.99952725.7028825-4.51219512 3.8847007-5.19068736 8.4257207-5.19068736h.1175166c1.9756097 0 3.443459-.20177383 4.1286031-1.71396896.1702589-.49662322.5633544-.88479478 1.0620842-1.04878048h.0243903c.3198175-.10930311.6668787-.10930311.9866962 0h.022173c.5038055.16042921.9023897.54915151 1.075388 1.04878048.6851441 1.51219513 2.150776 1.71396896 4.1286031 1.71396896h.1175166c4.5388025 0 7.7206205.67849224 8.4257205 5.19068736zm-107.760532 42.3104213h15.1685144v3.4146341h-5.52106429v15.713969h-4.12638581v-15.713969h-5.5210643zm25.3614191 11.1219512-7.2416852-11.1219512h4.6984479l4.6740577 7.3170732 4.6563193-7.3170732h4.5654102l-7.2416852 11.1219512v8.0066519h-4.1108647zm19.5388026 1.2749446v6.7228381h-4.0709534v-19.1197339h7.2682927c4.5654102 0 7.5698448 1.8292683 7.5698448 6.0931264 0 4.345898-3.1419069 6.3126386-7.5698448 6.3126386zm2.7871397-9.0177384h-2.7871397v5.6297118h2.7871397c2.5432373 0 3.8004435-.8470067 3.8004435-2.924612s-1.2572062-2.6962306-3.8004435-2.6962306zm12.6230599 15.7494457v-19.1286031h13.0354767v3.3880266h-8.9866962v4.2128603h8.3680709v3.3880266h-8.3680709v4.7560976h9.1286031v3.3880266zm41.5986697-19.1286031-4.7915744 19.1286031h-4.7472284s-2.1042128-9.2638581-2.8691796-12.6784922h-.0820399c-.7095343 3.4146341-2.977827 12.6784922-2.977827 12.6784922h-4.7560976l-4.8093126-19.1286031h4.1529933s2.5144125 10.767184 3.1441242 14.2926829h.0842572c.6829268-3.5254989 3.3059867-14.2926829 3.3059867-14.2926829h3.8536585s2.6230599 10.767184 3.3259424 14.2926829h.0820399c.6829268-3.5254989 3.2239468-14.2926829 3.2239468-14.2926829zm14.94235 11.2882483 4.399113 7.8425721h-4.503326l-3.962306-7.2439025h-2.54102v7.2416852h-4.070953v-19.1286031h6.995565c4.43459 0 7.317074 1.7472284 7.317074 5.8203991.006651 2.8425721-1.388027 4.5809313-3.634147 5.4678492zm-4.15521-7.8980044h-2.452329v5.1640798h2.45898c2.376941 0 3.580932-.7649667 3.580932-2.7050998 0-1.8603104-1.206209-2.4611973-3.580932-2.4611973zm13.314855-3.3902439h4.099779v19.1286031h-4.099779zm8.501109 0h15.166297v3.4146341h-5.518847v15.713969h-4.128603v-15.713969h-5.518847zm19.56541 19.1286031v-19.1286031h13.035477v3.3880266h-8.991131v4.2128603h8.363637v3.3880266h-8.363637v4.7560976h9.128603v3.3880266zm28.831486-7.8403548 4.40133 7.8425721h-4.509978l-3.962306-7.2439025h-2.541019v7.2416852h-4.073171v-19.1286031h6.995565c4.43459 0 7.317073 1.7472284 7.317073 5.8203991.00887 2.8425721-1.392461 4.5809313-3.627494 5.4678492zm-4.152993-7.8980044h-2.45898v5.1640798h2.45898c2.37694 0 3.580931-.7649667 3.580931-2.7050998 0-1.8603104-1.203991-2.4611973-3.580931-2.4611973z" fill="#173652"/><path d="m101.184035 91.2727273c1.57428.345898 2.474502 1.3281596 2.470067 2.6873614 0 1.6186253-1.412417 2.8381375-3.286031 2.8381375-2.2172949 0-3.2682927-1.3636364-3.5144125-2.6407983-.0317452-.1767102.0726905-.3495038.2439025-.4035476l.789357-.2505544c.0970421-.0317744.2031176-.0196283.2904656.0332595.0880299.0518368.1494414.1391057.1685144.2394678.1463415.7716186.751663 1.594235 2.008869 1.594235 1.066519 0 1.731708-.5011086 1.731708-1.3082039 0-.6319291-.46785-1.1064302-1.248338-1.2727273l-1.297117-.2815965c-1.4611974-.3192904-2.3325943-1.2993348-2.3325943-2.6297117 0-1.5454546 1.4412417-2.8514413 3.1463413-2.8514413 2.305987 0 2.984479 1.5121952 3.168515 2.1640799.057535.1834078-.040482.3794429-.22173.4434589l-.716186.2527717c-.091545.0331682-.192764.0267416-.279379-.0177384-.089095-.0456222-.155606-.1257561-.184036-.2217295-.220762-.7654123-.943246-1.275021-1.738359-1.2261641-.9201774 0-1.616408.5898005-1.616408 1.3725056 0 .616408.3769402 1.0354767 1.0576497 1.1840355zm6.514413-1.3126386c1.915743 0 3.10643 1.2949002 3.093126 3.3769401v.1929047c-.011727.1884487-.168171.3351761-.356984.3348115h-4.212861c-.021635-.0003504-.042173.0095076-.055432.0266075-.014415.0145909-.021005.0351834-.017738.0554324.083507.8709403.825993 1.529207 1.700665 1.5077606.668825.0462805 1.289871-.3482766 1.532151-.9733925.074294-.1708102.266832-.2564896.443459-.1973393l.636363.2217295c.092731.0309872.168294.0993153.208426.1884701.039973.0919253.039973.196323 0 .2882483-.467849 1.1419069-1.523282 1.8226164-2.827051 1.8226164-.84853.0111311-1.666773-.3150495-2.274945-.9068736-.655622-.6772593-1.00709-1.5923566-.973392-2.534368 0-2.1308204 1.583149-3.4035477 3.104213-3.4035477zm1.552106 2.5609756h-.008869c-.117516-.7583149-.689579-1.210643-1.514412-1.210643-.726525-.009836-1.357955.4969819-1.505544 1.2084257-.003257.0212422.002988.0428424.017079.0590684.014091.0162261.034603.0254371.056092.0251888h2.882484c.021045.0001553.041138-.0087588.055146-.0244652.014009-.0157064.020576-.0366841.018024-.0575747zm8.32816-2.368071c.197157 0 .356984.1598274.356984.3569845v5.5166297c.031475.7995237-.219742 1.5845763-.709534 2.2172949-.558758.6718404-1.419069 1.0110865-2.527716 1.0110865-1.498891 0-2.685144-.8824834-2.953437-2.1973392-.041623-.1918356.077488-.3818213.268293-.4279379l.749445-.1729491c.093506-.0205372.191333-.0038349.272728.0465632.079177.0503158.135035.1301131.15521.2217295.146277.7106732.782537 1.2131319 1.507761 1.1906874 1.190687 0 1.745011-.5920177 1.745011-1.8603104v-.2616408c.001242-.0299847-.016515-.057508-.044346-.0687362-.024384-.0114656-.053277-.0070879-.073171.0110865-.449191.3939874-1.030182.604537-1.627494.5898005-1.725056 0-2.977827-1.3170732-2.977827-3.1330377 0-1.8159646 1.252771-3.1463415 2.977827-3.1463415.596505-.0348583 1.183924.1585698 1.643015.5410199.02063.0144636.048107.0144636.068737 0 .028275-.0110365.046801-.038384.046563-.0687361-.001781-.0960302.034972-.1887736.102049-.257517s.15889-.1077603.254935-.1083367zm-2.698448 4.8647451c.964523 0 1.614191-.7361419 1.614191-1.8337029s-.616408-1.8359202-1.614191-1.8359202-1.643015.7050998-1.643015 1.8359202.629711 1.8337029 1.643015 1.8337029zm11.769401-5.0443459c1.130821 0 2.272728.7694013 2.263858 2.4878048v3.7937916c0 .1971571-.159827.3569845-.356984.3569845h-.762749c-.197519.0000038-.357983-.1594693-.359202-.3569845v-3.6629712c0-.4722838-.150776-1.2682926-1.166297-1.2682926-.753881 0-1.281597.5787139-1.281597 1.4101995v3.5210643c-.001219.1975152-.161683.3569883-.359202.3569845h-.776053c-.197157 0-.356984-.1598274-.356984-.3569845v-3.6629712c0-.4722838-.150776-1.2682926-1.166297-1.2682926-.776054 0-1.294901.572062-1.294901 1.4235033v3.5077605c-.001219.1975152-.161682.3569883-.359201.3569845h-.76275c-.197157 0-.356984-.1598274-.356984-.3569845v-5.7450111c0-.1971571.159827-.3569845.356984-.3569845h.725056c.094678 0 .185478.0376108.252426.1045584.066947.0669476.104558.157748.104558.2524261-.001306.0288163.015519.0553823.042129.0665189.026934.0114319.058051.0062458.079822-.0133038.446273-.3870643 1.019056-.5969271 1.609756-.5898004.723334-.0247072 1.407905.3268065 1.809313.9290465.011381.0172434.030355.0279676.050998.0288249.027399.0003956.053186-.0129141.068736-.0354768.474976-.6144829 1.219762-.9587393 1.995565-.9223946zm6.578714-.0133038c1.915743 0 3.108648 1.2949002 3.093127 3.3769401v.1929047c-.011727.1884487-.168172.3351761-.356985.3348115h-4.21286c-.021636-.0003504-.042173.0095076-.055432.0266075-.014416.0145909-.021005.0351834-.017739.0554324.083508.8709403.825994 1.529207 1.700665 1.5077606.669011.0470126 1.290455-.3477976 1.532151-.9733925.075088-.1700212.266887-.2553719.443459-.1973393l.634147.2217295c.093289.030933.169566.0991808.210643.1884701.038681.0921897.038681.1960586 0 .2882483-.46785 1.1419069-1.523282 1.8226164-2.827051 1.8226164-.848531.0111311-1.666774-.3150495-2.274945-.9068736-.655623-.6772593-1.00709-1.5923566-.973392-2.534368 0-2.1308204 1.583148-3.4035477 3.104212-3.4035477zm-1.421286 2.6430155h2.891353c.021685-.0001912.042412-.0089604.05765-.0243902.01223-.0165853.017771-.0371658.015521-.0576497-.117517-.767184-.689579-1.210643-1.529934-1.210643-.727354-.0109078-1.360015.496152-1.50776 1.2084257-.003258.0212422.002987.0428424.017079.0590684.014091.0162261.034602.0254371.056091.0251888zm9.066519-2.6297117c1.450111 0 2.350333.9889135 2.350333 2.5809312v3.7050998c0 .1971571-.159828.3569845-.356985.3569845h-.776053c-.197519.0000037-.357982-.1594693-.359202-.3569845v-3.4944568c0-.9379157-.434589-1.4124168-1.2949-1.4124168-.953437 0-1.2949.8026607-1.2949 1.5521064v3.3503326c0 .1971571-.159828.3569845-.356985.3569845h-.776053c-.197519.0000038-.357982-.1594693-.359202-.3569845v-5.7450111c.00122-.1975152.161683-.3569882.359202-.3569845h.749446c.197519-.0000037.357982.1594693.359202.3569845v.0465632c.000292.0290023.017686.0550946.044346.0665189.025501.0112642.055281.0060089.075388-.0133038.438734-.4219016 1.027861-.6510066 1.636363-.6363636zm5.964523 1.5543237c-.036913.0045066-.064575.0359842-.064301.0731707v3.0110865c0 .5121951.195122.7028825.718403.7028825.074091-.0005926.1481-.0050332.22173-.0133038.100904-.0086326.200973.0241902.277162.0909091.075167.0679879.117892.1647227.117516.2660754v.6119734c.001986.1663817-.112629.3114996-.274944.3481153-.226363.0503287-.457695.0748751-.689579.0731707-1.148559 0-1.862528-.7272727-1.862528-1.9002217v-3.1751663c.000601-.0191992-.006609-.0378214-.019981-.0516113-.013372-.0137898-.031763-.0215688-.050972-.0215594h-.751663c-.197157 0-.356984-.1598274-.356984-.3569845v-.6651885c0-.1971571.159827-.3569845.356984-.3569845h.119734c.667406 0 .807095-.4390244.807095-.8070953v-.7982262c0-.1971571.159828-.3569845.356985-.3569845h.665188c.197157 0 .356985.1598274.356985.3569845v1.5166297c0 .0404111.032759.0731708.07317.0731708h.904657c.197157 0 .356984.1598274.356984.3569844v.6651885c0 .1971571-.159827.3569845-.356984.3569845zm-62.3436802 3.2616408h-9.9290466c-.4579922 0-.8292683-.3712761-.8292683-.8292683s.3712761-.8292683.8292683-.8292683h9.9290466c.4579922 0 .8292683.3712761.8292683.8292683s-.3712761.8292683-.8292683.8292683zm-2.1286031 5.075388c-.8050094.0009287-1.6055659-.1194164-2.3747229-.3569845-.2937781-.0784018-.5210905-.311293-.5923478-.6068853-.0712572-.2955924.0249692-.6064778.2507541-.8101285.2257848-.2036508.544916-.2674047.8316159-.1661347.6106468.187703 1.2458566.2833581 1.8847007.2838137 2.7953109.0117819 5.2662367-1.8143585 6.075388-4.4900222.133479-.4371743.596085-.683368 1.0332594-.549889s.6833681.5960849.5498891 1.0332593c-1.0185255 3.374351-4.13385 5.6779234-7.6585365 5.6629712zm7.7982261-9.286031h-9.9290465c-.4579923 0-.8292683-.3712761-.8292683-.8292683 0-.4579923.371276-.8292683.8292683-.8292683h9.9290465c.4579923 0 .8292683.371276.8292683.8292683 0 .4579922-.371276.8292683-.8292683.8292683zm-14.6674057 0c-.2628161.0004149-.5101847-.1241076-.6664004-.3354583-.1562157-.2113506-.2026804-.4843674-.1251739-.7354952.6260933-2.0346412 2.035218-3.7370019 3.9170641-4.7321969 1.8818461-.9951951 4.0820863-1.2016102 6.1161953-.5737898.2937781.0784019.5210906.3112931.5923478.6068854s-.0249692.6064778-.2507541.8101285c-.2257848.2036507-.544916.2674046-.8316159.1661347-.6099363-.1874853-1.2443826-.283138-1.8824833-.2838138-2.7961604-.0122214-5.267671 1.8152533-6.0753881 4.4922395-.1084294.3474931-.4297757.5844635-.7937915.5853659zm11.7871396-3.157428c-.4579922 0-.8292682-.371276-.8292682-.8292683 0-.4579922.371276-.8292683.8292682-.8292683.4579923 0 .8292683.3712761.8292683.8292683 0 .4579923-.371276.8292683-.8292683.8292683zm-9.8381374 10.5277162c-.4579923 0-.8292683-.371276-.8292683-.8292683 0-.4579922.371276-.8292683.8292683-.8292683.4579922 0 .8292683.3712761.8292683.8292683 0 .4579923-.3712761.8292683-.8292683.8292683zm-36.8824834-7.1086474h1.0776053v-.8337029c0-1.7915743 1.1840355-2.383592 2.2749446-2.383592.6651885 0 1.345898.18847 1.6962306.4722838l-.6319291 1.1574279c-.2494887-.2307416-.5759257-.3603679-.9157427-.3636363-.5388027 0-.9024391.323725-.9024391 1.1086474v.8470067h1.4412417v1.1330377h-1.4412417v5.2505543h-1.5210643v-5.2549889h-1.0776053zm9.0354767 1.399113c-.2118621-.1630606-.4733136-.2483846-.7405765-.2416851-.7405765 0-1.5521064.6452328-1.5521064 2.0199557v3.2172949h-1.5365854v-6.3946785h1.4412417v1.037694c.3033856-.7661451 1.0617782-1.2533008 1.8847007-1.210643.2766314-.0032369.5513318.0464349.8093126.1463414zm6.9600887 1.7937916c0 1.9955654-1.2239468 3.3658537-3.2039911 3.3658537-1.9800444 0-3.1906874-1.3614191-3.1906874-3.3658537s1.2261641-3.3658536 3.1906874-3.3658536 3.2039911 1.3503326 3.2039911 3.3658536zm-1.5521064 0c0-1.2128603-.5121951-2.1951219-1.6430155-2.1951219s-1.6297118.9822616-1.6297118 2.1951219.5254989 2.1929047 1.6297118 2.1929047c1.1042128 0 1.6252771-.9822617 1.6252771-2.1929047zm2.9157428-3.1929046h1.4656319v.9711751c.3581503-.7174078 1.0986107-1.1632393 1.9002217-1.1441241.886918 0 1.600887.4168514 1.9379158 1.1441241.4470303-.7005789 1.2156271-1.1302603 2.0465632-1.1441241 1.1574279 0 2.1263858.7117516 2.1263858 2.1396895v4.4168515h-1.5343681v-4.0399113c0-.9157428-.5121951-1.2660754-1.0643015-1.2660754-.7117517 0-1.3725056.6651885-1.3725056 1.9268293v3.3791574h-1.5343681v-4.0399113c0-.9157428-.5254988-1.2660754-1.0776053-1.2660754-.7006652 0-1.3592018.6651885-1.3592018 1.9268293v3.3791574h-1.534368z" fill="#798ea1"/></g></svg>